<svg id="Layer_1" data-name="Layer 1" xmlns="http://www.w3.org/2000/svg" viewBox="0 0 378.54 371.56"><defs><style>.cls-1{fill:#d1d1d1;}.cls-2{fill:#fff;}.cls-3{fill:#4fc682;}.cls-4{fill:#5961aa;}</style></defs><title>400 Sokra animation</title><path class="cls-1" d="M239.8,247.85l-.14.1a23.44,23.44,0,0,0-8.54,26.73l22,62.11c7.5,21.2,32.89,30.15,51.77,17.91l.37-.23L259,224.08A60.15,60.15,0,0,1,239.8,247.85Z" transform="translate(-10.85 -14.3)"/><path class="cls-2" d="M388.3,179.24A185,185,0,0,0,185,15.33l46.2,130.32A59.94,59.94,0,0,1,259,224.08l46.23,130.39c2.88-1.88,5.72-3.81,8.5-5.85A185.69,185.69,0,0,0,388.3,179.24Z" transform="translate(-10.85 -14.3)"/><path class="cls-1" d="M185,15.33l-.43,0c-22,2.38-36,25-28.65,45.89l23.51,67.2a17.15,17.15,0,0,0,18.25,11.22l.14,0a59.62,59.62,0,0,1,33.39,6L185,15.33Z" transform="translate(-10.85 -14.3)"/><path class="cls-3" d="M166,246,82.81,360.07l15.18,8,15.17,8c9.9-14.58,51.8-73.27,62.2-87.14,3.43,15.07,19,80.37,23.31,96.86,11.71-1.79,26.43-5.48,38.14-7.27L195,259.54Z" transform="translate(-10.85 -14.3)"/><path class="cls-4" d="M12.63,225.55q-.89-18.74-1.78-37.49l133.33.27,4.84,38.2-90,99-9.27-13.44-9.26-13.45q17.25-20.16,35.11-40.53,18.15-20.7,36.16-40.75Q87.85,219,63.3,221,37.62,223.11,12.63,225.55Z" transform="translate(-10.85 -14.3)"/><path class="cls-4" d="M46.05,122.85c16.69-1.44,84.58-5,99.94-5.81l12.72,36.32-143.5-.93,5.45-48.11,96.27-69,12.24,36.16C115.93,79.81,60.3,114.21,46.05,122.85Z" transform="translate(-10.85 -14.3)"/><circle class="cls-1" cx="191.99" cy="184.21" r="39.43"/><circle class="cls-2" cx="191.99" cy="184.21" r="30.9"/></svg>